<svg width="100" height="100" viewBox="0 0 100 100" fill="none" xmlns="http://www.w3.org/2000/svg">
<mask id="mask0_9_2150" style="mask-type:luminance" maskUnits="userSpaceOnUse" x="0" y="0" width="100" height="100">
<path d="M100 0H0V100H100V0Z" fill="black"/>
<path d="M50 85C69.33 85 85 69.33 85 50C85 30.67 69.33 15 50 15C30.67 15 15 30.67 15 50C15 69.33 30.67 85 50 85Z" fill="white"/>
<path d="M50 60C55.5228 60 60 55.5228 60 50C60 44.4772 55.5228 40 50 40C44.4772 40 40 44.4772 40 50C40 55.5228 44.4772 60 50 60Z" fill="black"/>
<path d="M50 5H45L42 17H58L55 5" fill="white"/>
<path d="M78.9255 15.528L75.0953 12.3141L65.0837 19.5783L77.3404 29.8629L82.7557 18.742" fill="white"/>
<path d="M94.3164 42.1856L93.4482 37.2616L81.1096 36.3909L83.8879 52.1478L95.1847 47.1096" fill="white"/>
<path d="M88.9712 72.5L91.4712 68.1699L82.5789 59.5718L74.5789 73.4282L86.4712 76.8301" fill="white"/>
<path d="M65.3909 92.286L70.0894 90.5759L68.8042 78.2735L53.7691 83.7458L60.6924 93.9961" fill="white"/>
<path d="M34.6092 92.2863L39.3076 93.9964L46.231 83.7461L31.1959 78.2738L29.9107 90.5762" fill="white"/>
<path d="M11.0288 72.5L13.5288 76.8301L25.4211 73.4282L17.4211 59.5718L8.52881 68.1699" fill="white"/>
<path d="M5.68362 42.186L4.81538 47.11L16.1121 52.1482L18.8905 36.3913L6.55186 37.262" fill="white"/>
<path d="M21.0746 15.5281L17.2444 18.742L22.6597 29.8629L34.9165 19.5783L24.9049 12.3142" fill="white"/>
</mask>
<g mask="url(#mask0_9_2150)">
<path d="M100 0H0V100H100V0Z" fill="#80848E"/>
</g>
</svg>
