<svg width="100" height="100" viewBox="0 0 100 100" fill="none" xmlns="http://www.w3.org/2000/svg">
<mask id="mask0_11_2787" style="mask-type:luminance" maskUnits="userSpaceOnUse" x="0" y="0" width="100" height="100">
<path d="M100 0H0V100H100V0Z" fill="black"/>
<path d="M50 100C77.6142 100 100 77.6142 100 50C100 22.3858 77.6142 0 50 0C22.3858 0 0 22.3858 0 50C0 77.6142 22.3858 100 50 100Z" fill="white"/>
<path d="M43.2273 60.5568V59.5909C43.2462 56.2765 43.5398 53.6345 44.108 51.6648C44.6951 49.6951 45.5473 48.1042 46.6648 46.892C47.7822 45.6799 49.1269 44.5814 50.6989 43.5966C51.8731 42.839 52.9242 42.053 53.8523 41.2386C54.7803 40.4242 55.5189 39.5246 56.0682 38.5398C56.6174 37.536 56.892 36.4186 56.892 35.1875C56.892 33.8807 56.5795 32.7348 55.9545 31.75C55.3295 30.7652 54.4867 30.0076 53.4261 29.4773C52.3845 28.947 51.2292 28.6818 49.9602 28.6818C48.7292 28.6818 47.5644 28.9564 46.4659 29.5057C45.3674 30.036 44.4678 30.8314 43.767 31.892C43.0663 32.9337 42.6875 34.2311 42.6307 35.7841H31.0398C31.1345 31.9962 32.0436 28.8712 33.767 26.4091C35.4905 23.928 37.7727 22.0814 40.6136 20.8693C43.4545 19.6383 46.589 19.0227 50.017 19.0227C53.786 19.0227 57.1193 19.6477 60.017 20.8977C62.9148 22.1288 65.1875 23.9186 66.8352 26.267C68.483 28.6155 69.3068 31.447 69.3068 34.7614C69.3068 36.9773 68.9375 38.947 68.1989 40.6705C67.4792 42.375 66.4659 43.8902 65.1591 45.2159C63.8523 46.5227 62.3087 47.7064 60.5284 48.767C59.0322 49.6572 57.8011 50.5852 56.8352 51.5511C55.8883 52.517 55.178 53.6345 54.7045 54.9034C54.25 56.1723 54.0133 57.7348 53.9943 59.5909V60.5568H43.2273ZM48.8523 78.7386C46.9583 78.7386 45.339 78.0758 43.9943 76.75C42.6686 75.4053 42.0152 73.7955 42.0341 71.9205C42.0152 70.0644 42.6686 68.4735 43.9943 67.1477C45.339 65.822 46.9583 65.1591 48.8523 65.1591C50.6515 65.1591 52.233 65.822 53.5966 67.1477C54.9602 68.4735 55.6515 70.0644 55.6705 71.9205C55.6515 73.1705 55.3201 74.3163 54.6761 75.358C54.0511 76.3807 53.2273 77.2045 52.2045 77.8295C51.1818 78.4356 50.0644 78.7386 48.8523 78.7386Z" fill="black"/>
</mask>
<g mask="url(#mask0_11_2787)">
<path d="M100 0H0V100H100V0Z" fill="#80848E"/>
</g>
</svg>
