<svg width="100" height="100" viewBox="0 0 100 100" fill="none" xmlns="http://www.w3.org/2000/svg">
<path d="M50 38C58.2843 38 65 31.2843 65 23C65 14.7157 58.2843 8 50 8C41.7157 8 35 14.7157 35 23C35 31.2843 41.7157 38 50 38Z" fill="#80848E"/>
<path d="M50 53C58.2843 53 65 46.2843 65 38C65 29.7157 58.2843 23 50 23C41.7157 23 35 29.7157 35 38C35 46.2843 41.7157 53 50 53Z" fill="#80848E"/>
<path d="M65 23H35V38H65V23Z" fill="#80848E"/>
<path d="M30 33C30 73 70 73 70 33H75C75 83 25 83 25 33" fill="#80848E"/>
<path d="M25 93C27.7614 93 30 90.7614 30 88C30 85.2386 27.7614 83 25 83C22.2386 83 20 85.2386 20 88C20 90.7614 22.2386 93 25 93Z" fill="#80848E"/>
<path d="M75 93C77.7614 93 80 90.7614 80 88C80 85.2386 77.7614 83 75 83C72.2386 83 70 85.2386 70 88C70 90.7614 72.2386 93 75 93Z" fill="#80848E"/>
<path d="M75 83H25V93H75V83Z" fill="#80848E"/>
<path d="M55 68H45V88H55V68Z" fill="#80848E"/>
</svg>
